<svg xmlns="http://www.w3.org/2000/svg" width="24" height="17" viewBox="0 0 24 17">
    <path fill="#333" fill-rule="evenodd" d="M15.953 8.448l-6.29-3.621v7.242l6.29-3.621M13.198 0c.05.005.099.013.148.013 1.96.025 3.918.067 5.874.208.687.05 1.376.1 2.051.244 1.197.257 1.993.972 2.354 2.144.179.58.245 1.185.314 1.787.019.167.04.335.061.503v7.018c-.014.105-.03.21-.04.314-.066.663-.133 1.327-.307 1.972-.309 1.146-1.043 1.89-2.19 2.201-.59.16-1.203.204-1.81.245-.958.064-1.916.127-2.875.156-1.533.045-3.066.079-4.6.084-2.076.007-4.153-.037-6.227-.152-.958-.052-1.916-.113-2.865-.262-.622-.098-1.186-.322-1.664-.742-.58-.508-.888-1.158-1.025-1.905-.145-.784-.228-1.575-.284-2.369C.034 10.362-.01 9.263.002 8.163.014 6.98.064 5.8.18 4.621c.063-.643.13-1.287.302-1.912C.796 1.57 1.52.804 2.667.5 3.175.366 3.71.31 4.237.272 5.302.19 6.37.129 7.44.088 8.51.047 9.58.038 10.65.016c.082-.002.165-.01.248-.016h2.3z"/>
</svg>
