<svg xmlns="http://www.w3.org/2000/svg" width="27" height="26" viewBox="0 0 27 26">
    <g fill="none" fill-rule="evenodd">
        <path fill="#503795" fill-rule="nonzero" d="M25.481 25.275H1.331a1.31 1.31 0 01-1.31-1.31V7.793a.54.54 0 01.17-.395L7.067.504A1.68 1.68 0 018.894.193l17.575 7.75a.54.54 0 01.322.494v15.53a1.31 1.31 0 01-1.31 1.308z"/>
        <path fill="#FFF" fill-rule="nonzero" d="M3 17.37v-2.885h1.346v2.54c0 1.164.173 1.766 1.196 1.766.753 0 1.205-.473 1.205-1.26v-3.046h1.346v5.501H6.748v-.441c-.366.312-.883.495-1.486.495C3.614 20.04 3 18.996 3 17.37zM9.073 17.725v-4.93l1.356-.657v2.347h1.238v1.248H10.43v1.992c0 .722.151.97 1.4.98l.086 1.314h-.29c-1.508 0-2.552-.442-2.552-2.294zM11.957 17.262c0-1.583 1.281-2.83 2.885-2.83 1.745 0 2.886 1.345 2.886 2.917 0 .118-.011.247-.022.365h-4.37c.226.71.786 1.131 1.615 1.131.689 0 1.098-.215 1.453-.7l1.13.625c-.57.861-1.399 1.335-2.583 1.335-1.734 0-2.994-1.217-2.994-2.843zm4.339-.613c-.27-.636-.743-.97-1.454-.97a1.628 1.628 0 00-1.475.97h2.929zM18.094 17.262c0-1.583 1.28-2.83 2.885-2.83 1.077 0 1.906.462 2.455 1.323l-1.142.635c-.312-.441-.753-.71-1.313-.71-.872 0-1.594.732-1.594 1.583 0 .85.722 1.583 1.594 1.583.56 0 1.001-.248 1.313-.7l1.131.624c-.55.862-1.367 1.335-2.444 1.335-1.604 0-2.885-1.282-2.885-2.843z"/>
        <path d="M12.578 9.179L12.577 9.178 12.577 9.178zM12.578 9.179L12.575 9.177 12.573 9.177 12.578 9.179z"/>
        <path fill="#F7941D" fill-rule="nonzero" d="M12.549 9.158h.005L8.487 7.377a.72.72 0 00-.784.135l-.067.072 1.14 2.212 3.773-.638zM6.82 10.126L9.285 10.788 9.285 10.788 8.773 9.796z"/>
        <path fill="#F37021" fill-rule="nonzero" d="M9.285 10.788L12.547 9.158 8.773 9.796z"/>
        <path fill="#D11E4C" fill-rule="nonzero" d="M17.286 11.228L12.555 9.156 16.383 11.87z"/>
        <path fill="#F37021" fill-rule="nonzero" d="M12.58 9.178L12.575 9.176 12.566 9.181zM15.756 12.316L15.757 12.316 17.639 12.773 17.667 12.78 16.383 11.87zM9.308 10.81L9.309 10.81 9.308 10.81z"/>
        <path fill="#F04E23" fill-rule="nonzero" d="M12.555 9.156h-.007l-3.262 1.63a.883.883 0 01.264.022l6.204 1.507.627-.446-3.826-2.713z"/>
        <path fill="#FAA61A" fill-rule="nonzero" d="M8.773 9.796L7.633 7.584 7.632 7.585 5.602 9.799 6.82 10.126z"/>
        <path fill="#F37021" fill-rule="nonzero" d="M9.308 10.81L9.307 10.811 9.308 10.81 9.308 10.81z"/>
        <path fill="#FDB913" fill-rule="nonzero" d="M5.602 9.799L5.572 9.831 5.026 10.427 5.024 10.43 6.82 10.126z"/>
        <path fill="#FFCE08" fill-rule="nonzero" d="M6.82 10.126l-1.796.304-3.4 3.707c-.31.309-.4.457.136.178l.101-.048 7.181-3.434a.877.877 0 01.243-.05l-2.465-.657z"/>
        <path fill="#E10786" fill-rule="nonzero" d="M24.091 14.21l-6.807-2.981-.903.642 1.283.91 6.32 1.535c.571.148.49.043.107-.106z"/>
        <text fill="#FFF" font-family="Avenir-Black, Avenir" font-size="1.48" font-weight="700">
            <tspan x="6.244" y="23.378">BY</tspan>
        </text>
        <path fill="#FFF" d="M10.794 23.212c-.077.249-.197.425-.36.533-.162.108-.388.16-.674.16-.296 0-.492-.053-.589-.158-.094-.104-.103-.283-.026-.532l.36-1.17h.548l-.373 1.21c-.059.192.005.287.19.287.186 0 .305-.095.364-.288l.371-1.208h.548l-.36 1.166zM11.274 23.855L10.778 23.855 11.343 22.015 11.838 22.015zM12.359 23.86a3.509 3.509 0 01-.34.019c-.162 0-.264-.022-.307-.063-.05-.05-.051-.153-.004-.305l.216-.7H11.7l.103-.335h.222l.13-.418h.493l-.128.418h.253l-.103.335h-.254l-.187.61c-.015.049-.016.082 0 .098.015.015.046.027.102.027.042 0 .085-.004.127-.009l-.1.323zM13.83 22.917a.86.86 0 00-.194-.023.446.446 0 00-.45.32l-.198.64h-.494l.424-1.379h.495l-.077.246h.006c.159-.187.325-.28.5-.28a.91.91 0 01.132.01l-.144.466zM15.066 23.855l-.228.005-.25.005a.118.118 0 01-.026-.119l.01-.04h-.004a.78.78 0 01-.555.194c-.343 0-.474-.145-.383-.43.078-.252.278-.396.601-.429.263-.029.394-.042.392-.041a.309.309 0 00.135-.042.17.17 0 00.063-.1c.027-.086-.03-.13-.17-.13-.154 0-.255.06-.301.178h-.47a.677.677 0 01.297-.363c.126-.072.32-.108.58-.108.252 0 .42.04.497.118.079.079.08.19.03.35l-.224.734a.15.15 0 00-.004.118c.013.007.02.011.017.015 0 .014 0 .028-.003.041v.041m-.393-.514l.045-.145c-.12.029-.241.049-.364.059a.244.244 0 00-.197.17c-.032.108.012.161.134.161.204 0 .333-.082.382-.248"/>
        <path fill="#FFF" d="M16.805 22.447L16.293 22.447 15.858 23.855 15.311 23.855 15.743 22.447 15.231 22.447 15.354 22.043 16.93 22.043z"/>
        <path fill="#FFF" d="M17.758 23.273H16.74c-.073.222-.017.335.164.335a.311.311 0 00.3-.2h.5a.71.71 0 01-.3.347c-.176.1-.377.15-.58.145-.522 0-.704-.25-.554-.742a1.02 1.02 0 01.337-.52.984.984 0 01.636-.201c.275 0 .452.067.533.203.08.137.072.343-.018.633M17.355 23a.252.252 0 000-.19c-.029-.06-.089-.086-.178-.086-.166 0-.285.092-.351.276h.529zM19.387 23.282c-.147.411-.463.618-.947.618-.517 0-.698-.246-.548-.734.15-.488.482-.73 1-.73.253 0 .424.045.513.136.089.092.109.237.06.439h-.495c.05-.166-.007-.25-.17-.25a.328.328 0 00-.25.1.76.76 0 00-.15.3c-.044.145-.054.248-.033.31.022.063.084.093.178.093.154 0 .27-.094.344-.282h.498zM20.723 23.855h-.495l.26-.842c.04-.132 0-.197-.123-.197a.277.277 0 00-.188.07.373.373 0 00-.118.177l-.241.792h-.495l.566-1.84h.493l-.194.63c.118-.135.29-.203.515-.203a.368.368 0 01.281.098c.07.076.083.186.04.329l-.3.986z"/>
    </g>
</svg>
