<svg width="77" height="72" viewBox="0 0 77 72" fill="none" xmlns="http://www.w3.org/2000/svg">
<path d="M51.4045 72L77.0003 65.6538V11.0428L51.4045 17.389V72Z" fill="#FCDFB8"/>
<path d="M25.8086 65.6538L51.4045 72L51.4038 17.3884L25.8086 11.0428V65.6538Z" fill="#FCCE92"/>
<path d="M0.212891 72L25.8086 65.6538V11.0428L0.212891 17.389V72Z" fill="#FCDFB8"/>
<path d="M20.7661 36.8197C28.1656 36.8197 34.1641 30.8212 34.1641 23.4217C34.1641 16.0222 28.1656 10.0237 20.7661 10.0237C13.3666 10.0237 7.36816 16.0222 7.36816 23.4217C7.36816 30.8212 13.3666 36.8197 20.7661 36.8197Z" fill="#E0E0E0"/>
<path d="M34.1638 23.4217C34.1638 30.8199 28.165 36.8187 20.7652 36.8187C20.0302 36.8187 19.3109 36.7592 18.6089 36.6448C24.9838 35.6152 29.8512 30.0865 29.8512 23.4217C29.8512 16.7568 24.9838 11.2282 18.6089 10.197C19.3109 10.0826 20.0302 10.0231 20.7652 10.0231C28.165 10.0231 34.1638 16.0219 34.1638 23.4217Z" fill="#F3F3F3"/>
<path d="M23.8536 23.4217L20.7661 15.1127L17.6785 23.4217L20.7661 31.7305L23.8536 23.4217Z" fill="#D11E4C"/>
<path d="M20.766 11.199C17.6784 11.199 15.1665 8.68715 15.1665 5.59952C15.1665 2.51189 17.6784 0 20.766 0C23.8537 0 26.3655 2.51189 26.3655 5.59952C26.3655 8.68715 23.8537 11.199 20.766 11.199ZM20.766 2.35047C18.9745 2.35047 17.5171 3.80787 17.5171 5.59936C17.5171 7.39086 18.9745 8.84825 20.766 8.84825C22.5575 8.84825 24.0149 7.39086 24.0149 5.59936C24.0149 3.80787 22.5575 2.35047 20.766 2.35047Z" fill="#EF5C5E"/>
<path d="M49.7761 42.9592C49.7761 49.2744 53.0067 54.833 57.9035 58.0791C62.8003 54.8328 66.0309 49.2744 66.0309 42.9592C66.0309 42.7619 66.0278 42.5652 66.0215 42.3693C65.6913 32.0453 50.1156 32.0453 49.7854 42.3693C49.7793 42.5652 49.7761 42.7619 49.7761 42.9592Z" fill="#FF7021"/>
<path d="M57.9035 47.5543C60.3701 47.5543 62.3696 45.5548 62.3696 43.0883C62.3696 40.6218 60.3701 38.6223 57.9035 38.6223C55.437 38.6223 53.4375 40.6218 53.4375 43.0883C53.4375 45.5548 55.437 47.5543 57.9035 47.5543Z" fill="white"/>
<path d="M58.8955 65.3342C58.8187 65.3342 58.7409 65.3267 58.6627 65.3111C56.9854 64.9737 55.4406 64.4086 53.9398 63.583C53.3711 63.2702 53.1634 62.5555 53.4762 61.9868C53.789 61.4181 54.5034 61.2103 55.0725 61.5232C56.3608 62.2317 57.6867 62.7171 59.126 63.0063C59.7624 63.1344 60.1746 63.754 60.0466 64.3904C59.9343 64.9486 59.4438 65.3342 58.8955 65.3342ZM50.7098 60.981C50.4323 60.981 50.1538 60.8832 49.9299 60.6845C48.7808 59.6641 47.7012 58.5646 46.5099 57.3365C46.0579 56.8706 46.0692 56.1265 46.5351 55.6746C47.0012 55.2226 47.7451 55.2339 48.197 55.6998C49.3549 56.8934 50.4021 57.9602 51.4907 58.9267C51.9761 59.3577 52.0201 60.1006 51.5891 60.586C51.3571 60.8477 51.0341 60.981 50.7098 60.981ZM7.49474 56.7712C7.24667 56.7712 6.99656 56.6929 6.78391 56.5311C6.26787 56.1381 6.16726 55.4016 6.55981 54.8852C6.60996 54.8194 7.81113 53.2486 9.92247 51.2989C10.3992 50.8584 11.1429 50.8882 11.5833 51.3651C12.0236 51.8419 11.994 52.5855 11.5171 53.0259C9.56878 54.8249 8.44189 56.2937 8.43076 56.3083C8.1993 56.6117 7.8489 56.7712 7.49474 56.7712ZM44.0364 54.364C43.7463 54.364 43.4558 54.2573 43.2286 54.0421C42.0249 52.9024 40.8884 51.9366 39.7546 51.0896C39.2345 50.7011 39.128 49.9646 39.5163 49.4445C39.9048 48.9245 40.6413 48.8178 41.1614 49.2063C42.3692 50.1086 43.5741 51.132 44.8447 52.3351C45.3161 52.7814 45.3363 53.5253 44.8902 53.9967C44.6588 54.2408 44.3479 54.364 44.0364 54.364ZM14.3882 50.3941C14.0148 50.3941 13.6476 50.2166 13.4196 49.8859C13.051 49.3515 13.1856 48.6197 13.72 48.2511C15.1131 47.2905 16.5439 46.4704 17.9721 45.8137C18.5623 45.5427 19.2598 45.801 19.5309 46.3907C19.802 46.9805 19.5438 47.6783 18.9539 47.9494C17.6482 48.5496 16.3362 49.3023 15.0544 50.1862C14.8506 50.3267 14.6182 50.3941 14.3882 50.3941ZM36.5011 48.7996C36.3136 48.7996 36.1235 48.7546 35.9468 48.66C35.2676 48.2959 34.5613 47.9526 33.8477 47.6393C33.1868 47.3493 32.5134 47.0974 31.846 46.8909C31.2259 46.6989 30.8788 46.0407 31.0708 45.4206C31.2628 44.8005 31.9209 44.4537 32.541 44.6454C33.2931 44.8781 34.0504 45.1613 34.7925 45.4869C35.5621 45.8248 36.324 46.1954 37.0572 46.5883C37.6294 46.895 37.8445 47.6072 37.5378 48.1793C37.326 48.5747 36.9203 48.7996 36.5011 48.7996ZM22.9066 46.5533C22.3656 46.5533 21.8787 46.1775 21.7592 45.6273C21.6214 44.993 22.0238 44.3671 22.6582 44.2293C24.313 43.8698 25.9936 43.7221 27.624 43.7898C28.2726 43.8167 28.7764 44.3644 28.7495 45.0129C28.7225 45.6615 28.1714 46.1645 27.5263 46.1384C26.0943 46.0787 24.6166 46.2092 23.1572 46.5264C23.0732 46.5446 22.9892 46.5533 22.9066 46.5533Z" fill="#666666"/>
<path d="M63.9201 24.5753L67.4936 21.0018L71.067 24.5753C71.2964 24.8047 71.5973 24.9195 71.898 24.9195C72.1987 24.9195 72.4996 24.8048 72.729 24.5753C73.188 24.1163 73.188 23.372 72.729 22.9132L68.3246 18.5087C67.8656 18.0497 67.1214 18.0497 66.6625 18.5087L62.2581 22.9132C61.7991 23.3722 61.7991 24.1164 62.2581 24.5753C62.7169 25.0343 63.4611 25.0343 63.9201 24.5753Z" fill="#FCCE92"/>
<path d="M68.3243 23.5903C67.8653 23.1313 67.1211 23.1313 66.6623 23.5903L62.2578 27.9947C61.7988 28.4537 61.7988 29.1979 62.2578 29.6568C62.7168 30.1158 63.461 30.1158 63.9199 29.6568L66.318 27.2587V31.7946C66.318 32.4437 66.8442 32.9699 67.4933 32.9699C68.1424 32.9699 68.6686 32.4437 68.6686 31.7946V27.2587L71.0667 29.6568C71.2962 29.8862 71.597 30.0011 71.8978 30.0011C72.1985 30.0011 72.4994 29.8864 72.7288 29.6568C73.1878 29.1978 73.1878 28.4536 72.7288 27.9947L68.3243 23.5903Z" fill="#FCCE92"/>
<path d="M42.4381 29.4971C42.2178 29.2766 41.9188 29.1528 41.6071 29.1528C41.2954 29.1528 40.9964 29.2766 40.7761 29.4971L36.3716 33.9016C35.9126 34.3606 35.9126 35.1048 36.3716 35.5636C36.8306 36.0226 37.5748 36.0226 38.0336 35.5636L41.6071 31.9902L45.1805 35.5636C45.4099 35.7932 45.7108 35.9079 46.0115 35.9079C46.3123 35.9079 46.6131 35.7932 46.8426 35.5636C47.3016 35.1046 47.3016 34.3604 46.8426 33.9016L42.4381 29.4971Z" fill="#FCDFB8"/>
<path d="M42.4381 34.5787C41.9791 34.1197 41.2349 34.1197 40.7761 34.5787L36.3716 38.9832C35.9126 39.4422 35.9126 40.1864 36.3716 40.6453C36.8306 41.1043 37.5748 41.1043 38.0336 40.6453L40.4318 38.2471V42.7831C40.4318 43.4322 40.958 43.9584 41.6071 43.9584C42.2562 43.9584 42.7824 43.4322 42.7824 42.7831V38.2471L45.1805 40.6453C45.4099 40.8747 45.7108 40.9895 46.0115 40.9895C46.3123 40.9895 46.6131 40.8748 46.8426 40.6453C47.3016 40.1863 47.3016 39.442 46.8426 38.9832L42.4381 34.5787Z" fill="#FCDFB8"/>
<path d="M20.7662 37.9948C12.7304 37.9948 6.19287 31.4573 6.19287 23.4216C6.19287 15.3858 12.7304 8.84827 20.7662 8.84827C28.8019 8.84827 35.3394 15.3858 35.3394 23.4216C35.3394 31.4573 28.8019 37.9948 20.7662 37.9948ZM20.7662 11.1991C14.0266 11.1991 8.5435 16.6821 8.5435 23.4217C8.5435 30.1613 14.0266 35.6444 20.7662 35.6444C27.5057 35.6444 32.9888 30.1613 32.9888 23.4217C32.9888 16.6821 27.5057 11.1991 20.7662 11.1991Z" fill="#EF5C5E"/>
<path d="M23.8536 23.4217H17.6785L20.7661 31.7305L23.8536 23.4217Z" fill="#503796"/>
</svg>
